<svg width="279" height="57" viewBox="0 0 279 57" fill="none" xmlns="http://www.w3.org/2000/svg">
<path d="M2.97088 46V11.8182H16.4567C19.0381 11.8182 21.2412 12.2799 23.0661 13.2035C24.902 14.1159 26.2984 15.4122 27.2553 17.0923C28.2234 18.7614 28.7074 20.7253 28.7074 22.984C28.7074 25.2539 28.2178 27.2067 27.2386 28.8423C26.2595 30.4669 24.8408 31.7131 22.9826 32.581C21.1355 33.4489 18.899 33.8828 16.2731 33.8828H7.24361V28.0746H15.1048C16.4845 28.0746 17.6306 27.8854 18.543 27.5071C19.4554 27.1288 20.1341 26.5613 20.5792 25.8047C21.0354 25.0481 21.2635 24.1078 21.2635 22.984C21.2635 21.8491 21.0354 20.8922 20.5792 20.1133C20.1341 19.3344 19.4498 18.7447 18.5263 18.3441C17.6139 17.9324 16.4622 17.7266 15.0714 17.7266H10.1978V46H2.97088ZM21.4304 30.4446L29.9258 46H21.9478L13.636 30.4446H21.4304ZM84.5533 11.8182V46H77.3263V11.8182H84.5533ZM119.09 11.8182V46H112.848L97.9765 24.4861H97.7261V46H90.4992V11.8182H96.8415L111.596 33.3153H111.896V11.8182H119.09ZM143.604 21.6488C143.47 20.3024 142.897 19.2565 141.885 18.511C140.872 17.7655 139.498 17.3928 137.762 17.3928C136.583 17.3928 135.587 17.5597 134.775 17.8935C133.962 18.2161 133.339 18.6668 132.905 19.2454C132.482 19.824 132.271 20.4805 132.271 21.2148C132.249 21.8268 132.377 22.3609 132.655 22.8171C132.944 23.2733 133.339 23.6683 133.84 24.0021C134.341 24.3248 134.919 24.6085 135.576 24.8533C136.232 25.087 136.933 25.2873 137.679 25.4542L140.75 26.1886C142.241 26.5224 143.609 26.9674 144.855 27.5238C146.102 28.0801 147.181 28.7644 148.093 29.5767C149.006 30.389 149.712 31.3459 150.213 32.4474C150.725 33.549 150.986 34.8119 150.998 36.2362C150.986 38.328 150.452 40.1417 149.395 41.6772C148.349 43.2016 146.836 44.3866 144.855 45.2322C142.886 46.0668 140.51 46.484 137.729 46.484C134.969 46.484 132.566 46.0612 130.518 45.2156C128.482 44.3699 126.891 43.1181 125.745 41.4602C124.61 39.7912 124.015 37.7272 123.959 35.2681H130.952C131.03 36.4142 131.359 37.3711 131.937 38.1388C132.527 38.8955 133.311 39.4685 134.29 39.858C135.281 40.2363 136.399 40.4254 137.645 40.4254C138.869 40.4254 139.932 40.2474 140.833 39.8913C141.746 39.5353 142.452 39.0401 142.953 38.4059C143.453 37.7717 143.704 37.0429 143.704 36.2195C143.704 35.4517 143.476 34.8063 143.02 34.2834C142.574 33.7604 141.918 33.3153 141.05 32.9482C140.193 32.581 139.142 32.2472 137.896 31.9467L134.174 31.0121C131.292 30.3111 129.016 29.2151 127.347 27.7241C125.678 26.2331 124.849 24.2247 124.86 21.6989C124.849 19.6293 125.4 17.8211 126.513 16.2745C127.637 14.7279 129.178 13.5206 131.136 12.6527C133.094 11.7848 135.32 11.3509 137.812 11.3509C140.349 11.3509 142.563 11.7848 144.455 12.6527C146.358 13.5206 147.837 14.7279 148.895 16.2745C149.952 17.8211 150.497 19.6126 150.53 21.6488H143.604ZM155.859 46V11.8182H178.891V17.7766H163.085V25.9215H177.706V31.88H163.085V40.0415H178.958V46H155.859ZM213.227 11.8182V46H206.985L192.114 24.4861H191.864V46H184.637V11.8182H190.979L205.733 33.3153H206.034V11.8182H213.227ZM237.741 21.6488C237.608 20.3024 237.035 19.2565 236.022 18.511C235.01 17.7655 233.636 17.3928 231.9 17.3928C230.72 17.3928 229.724 17.5597 228.912 17.8935C228.1 18.2161 227.477 18.6668 227.043 19.2454C226.62 19.824 226.409 20.4805 226.409 21.2148C226.386 21.8268 226.514 22.3609 226.793 22.8171C227.082 23.2733 227.477 23.6683 227.978 24.0021C228.478 24.3248 229.057 24.6085 229.713 24.8533C230.37 25.087 231.071 25.2873 231.816 25.4542L234.887 26.1886C236.378 26.5224 237.747 26.9674 238.993 27.5238C240.239 28.0801 241.319 28.7644 242.231 29.5767C243.143 30.389 243.85 31.3459 244.351 32.4474C244.863 33.549 245.124 34.8119 245.135 36.2362C245.124 38.328 244.59 40.1417 243.533 41.6772C242.487 43.2016 240.974 44.3866 238.993 45.2322C237.024 46.0668 234.648 46.484 231.866 46.484C229.107 46.484 226.704 46.0612 224.656 45.2156C222.62 44.3699 221.029 43.1181 219.883 41.4602C218.748 39.7912 218.152 37.7272 218.097 35.2681H225.09C225.168 36.4142 225.496 37.3711 226.075 38.1388C226.665 38.8955 227.449 39.4685 228.428 39.858C229.418 40.2363 230.537 40.4254 231.783 40.4254C233.007 40.4254 234.07 40.2474 234.971 39.8913C235.883 39.5353 236.59 39.0401 237.09 38.4059C237.591 37.7717 237.842 37.0429 237.842 36.2195C237.842 35.4517 237.613 34.8063 237.157 34.2834C236.712 33.7604 236.056 33.3153 235.188 32.9482C234.331 32.581 233.28 32.2472 232.033 31.9467L228.311 31.0121C225.429 30.3111 223.154 29.2151 221.485 27.7241C219.816 26.2331 218.987 24.2247 218.998 21.6989C218.987 19.6293 219.538 17.8211 220.65 16.2745C221.774 14.7279 223.315 13.5206 225.274 12.6527C227.232 11.7848 229.457 11.3509 231.95 11.3509C234.487 11.3509 236.701 11.7848 238.593 12.6527C240.495 13.5206 241.975 14.7279 243.032 16.2745C244.089 17.8211 244.634 19.6126 244.668 21.6488H237.741ZM249.996 46V11.8182H273.029V17.7766H257.223V25.9215H271.844V31.88H257.223V40.0415H273.096V46H249.996Z" fill="white"/>
<path d="M57.0029 11.2344H48.1719L61.4184 45.3541H71.0522L57.0029 11.2344Z" fill="white" stroke="white"/>
<path d="M36.9322 43.3502C40.1419 35.3221 43.3547 27.6953 43.3547 27.6953C43.3547 27.6953 46.9691 36.9277 49.3759 43.3502C50.6647 46.7897 47.0259 50.4584 43.3547 50.5756C39.5814 50.696 35.5307 46.8557 36.9322 43.3502Z" fill="#0094FF" stroke="#0094FF"/>
</svg>
